<svg width="46" height="42" viewBox="0 0 46 42" fill="none" xmlns="http://www.w3.org/2000/svg">
<path d="M42.2427 12.0864V34.8255L23.4705 40.7981L4.68604 34.8214V12.0905L15.3659 15.1989L23.4664 17.5586L31.5424 15.2029L42.2427 12.0864Z" stroke="white" stroke-width="2" stroke-linecap="round" stroke-linejoin="round"/>
<path d="M31.6727 9.94264C31.6727 10.0606 31.6727 10.1786 31.6727 10.2966L23.4828 12.6767L15.248 10.2925C15.248 10.1786 15.248 10.0647 15.248 9.95078C15.248 4.99937 18.9097 1 23.4624 1C28.0151 1 31.6727 5.00344 31.6727 9.94264Z" fill="white" stroke="white" stroke-width="2" stroke-linecap="round" stroke-linejoin="round"/>
<path d="M23.4661 17.5586V40.7981" stroke="white" stroke-width="2" stroke-linecap="round" stroke-linejoin="round"/>
<path d="M4.68588 27.0342C6.1981 27.0342 7.424 25.6954 7.424 24.0438C7.424 22.3923 6.1981 21.0535 4.68588 21.0535C3.17365 21.0535 1.94775 22.3923 1.94775 24.0438C1.94775 25.6954 3.17365 27.0342 4.68588 27.0342Z" fill="white" stroke="white" stroke-width="2" stroke-linecap="round" stroke-linejoin="round"/>
<path d="M42.2425 27.0342C43.7547 27.0342 44.9806 25.6954 44.9806 24.0438C44.9806 22.3923 43.7547 21.0535 42.2425 21.0535C40.7303 21.0535 39.5044 22.3923 39.5044 24.0438C39.5044 25.6954 40.7303 27.0342 42.2425 27.0342Z" fill="white" stroke="white" stroke-width="2" stroke-linecap="round" stroke-linejoin="round"/>
</svg>
