<svg width="42" height="32" viewBox="0 0 42 32" fill="none" xmlns="http://www.w3.org/2000/svg">
<path d="M30.9732 20.0885C30.9732 25.9112 24.4821 30.6307 16.475 30.6307C13.7456 30.6533 11.0449 30.072 8.56657 28.9284L4.72742 30.4188L5.05983 26.5906C3.13112 24.7934 1.98047 22.5359 1.98047 20.0885C1.98047 14.2659 8.47159 9.54272 16.475 9.54272C24.4784 9.54272 30.9732 14.2659 30.9732 20.0885Z" stroke="white" stroke-width="2" stroke-miterlimit="10"/>
<path d="M30.8012 21.6958C31.9111 21.423 32.9905 21.0387 34.0231 20.5488L37.8659 22.0392L37.5335 18.2146C39.4622 16.4211 40.6092 14.1636 40.6092 11.7162C40.6165 5.89354 34.129 1.16675 26.1219 1.16675C18.871 1.16675 12.8621 5.04608 11.8064 10.1053" stroke="white" stroke-width="2" stroke-miterlimit="10"/>
</svg>
