<svg width="38" height="42" viewBox="0 0 38 42" fill="none" xmlns="http://www.w3.org/2000/svg">
<path d="M34.0873 20.3117H33.3262C33.0507 20.3117 32.7864 20.4203 32.5916 20.6137C32.3968 20.8071 32.2873 21.0693 32.2873 21.3428V37.701C32.2873 38.0416 32.2193 38.3787 32.0873 38.693C31.9552 39.0072 31.7616 39.2924 31.5178 39.5319C31.274 39.7715 30.9847 39.9606 30.6667 40.0885C30.3488 40.2164 30.0084 40.2805 29.6654 40.277H26.0502C25.6374 40.277 25.2415 40.1142 24.9496 39.8245C24.6577 39.5348 24.4937 39.1419 24.4937 38.7322V29.9771C24.4937 29.2949 24.2207 28.6406 23.7347 28.1583C23.2487 27.6759 22.5895 27.4049 21.9022 27.4049H16.7267C16.0394 27.4049 15.3802 27.6759 14.8942 28.1583C14.4082 28.6406 14.1352 29.2949 14.1352 29.9771V38.7322C14.1352 38.935 14.0949 39.1359 14.0167 39.3233C13.9385 39.5108 13.8239 39.6811 13.6793 39.8245C13.5348 39.968 13.3632 40.0817 13.1744 40.1594C12.9855 40.237 12.7832 40.277 12.5788 40.277H8.9293C8.58866 40.2775 8.25126 40.2113 7.9364 40.0823C7.62154 39.9532 7.3354 39.7638 7.09435 39.5249C6.8533 39.286 6.66207 39.0023 6.5316 38.69C6.40112 38.3777 6.33397 38.0429 6.33397 37.7048V21.3428C6.334 21.0719 6.22663 20.8119 6.03508 20.619C5.84353 20.426 5.58318 20.3157 5.31029 20.3117H4.5492C3.97602 20.31 3.41675 20.1364 2.94475 19.8137C2.47275 19.4909 2.11008 19.0341 1.90432 18.5031C1.69856 17.9721 1.65933 17.3918 1.79177 16.8383C1.92421 16.2848 2.22214 15.784 2.64646 15.4016L6.3568 12.1005L9.40118 9.39612L17.4079 2.24624C17.93 1.77936 18.6079 1.521 19.3106 1.521C20.0134 1.521 20.6913 1.77936 21.2134 2.24624L25.7267 6.25742C25.8008 6.32365 25.8926 6.36721 25.991 6.38289C26.0895 6.39856 26.1904 6.38568 26.2816 6.34578C26.3729 6.30588 26.4506 6.24067 26.5054 6.15799C26.5602 6.07531 26.5897 5.97868 26.5905 5.87972V3.13761C26.5905 3.00238 26.6174 2.86848 26.6697 2.74359C26.7219 2.6187 26.7985 2.50528 26.895 2.40983C26.9916 2.31438 27.1061 2.23879 27.2321 2.18738C27.3582 2.13597 27.4932 2.10977 27.6294 2.11026H29.7034C29.8397 2.10977 29.9747 2.13597 30.1007 2.18738C30.2267 2.23879 30.3413 2.31438 30.4378 2.40983C30.5343 2.50528 30.6109 2.6187 30.6631 2.74359C30.7154 2.86848 30.7423 3.00238 30.7423 3.13761V10.2611C30.7442 10.4039 30.7759 10.5448 30.8355 10.6749C30.8951 10.8049 30.9813 10.9212 31.0886 11.0165L32.2759 12.074L35.9863 15.3751C36.4202 15.7553 36.7268 16.2579 36.8652 16.8157C37.0036 17.3735 36.9671 17.96 36.7607 18.4967C36.5542 19.0333 36.1877 19.4947 35.7099 19.819C35.2322 20.1434 34.6661 20.3153 34.0873 20.3117Z" stroke="white" stroke-width="2" stroke-miterlimit="10"/>
</svg>
